<svg width="1024" height="1024" viewBox="0 0 1024 1024" fill="none" xmlns="http://www.w3.org/2000/svg">
  <rect width="1024" height="1024" fill="#111111"/>
  <rect x="180" y="218" width="664" height="432" rx="124" fill="#FDE047"/>
  <path d="M356 650H528L356 806V650Z" fill="#FDE047"/>
  <circle cx="380" cy="434" r="44" fill="#111111"/>
  <circle cx="512" cy="434" r="44" fill="#111111"/>
  <circle cx="644" cy="434" r="44" fill="#111111"/>
  <path d="M606 742C686.074 742 751 677.074 751 597C751 516.926 686.074 452 606 452C525.926 452 461 516.926 461 597C461 677.074 525.926 742 606 742Z" fill="#111111"/>
  <path d="M606 503L620.676 548.17H668.162L629.743 576.091L644.419 621.261L606 593.34L567.581 621.261L582.257 576.091L543.838 548.17H591.324L606 503Z" fill="#FDE047"/>
</svg>
